# xmcd
#
# Track frame offsets:
#	150
#	14133
#	31268
#	45356
#	62136
#	76915
#	99339
#	112761
#	126984
#	146145
#	163435
#	179703
#	199360
#
# Disc length: 2940 seconds
#
# Revision: 0
# Processed by: cddbd v1.5.1PL0 Copyright (c) Steve Scherf et al.
# Submitted via: EasyCDDAExtractor 8.0.1.1
#
DISCID=ba0b7a0d
DTITLE=Joey Daniels - Take Me Off the Market
DYEAR=2005
DGENRE=Country
TTITLE0=Crazier Than Usual
TTITLE1=Swinging Door
TTITLE2=Kiss-n-Tell
TTITLE3=I'll Be Your Whiskey
TTITLE4=This Is Me Missing You
TTITLE5=Miracle
TTITLE6=Take Me Off the Market
TTITLE7=Hands On You
TTITLE8=Do It Again
TTITLE9=Man of My Dreams
TTITLE10=If You Love Me
TTITLE11=Believe
TTITLE12=Without You
EXTD=
EXTT0=
EXTT1=
EXTT2=
EXTT3=
EXTT4=
EXTT5=
EXTT6=
EXTT7=
EXTT8=
EXTT9=
EXTT10=
EXTT11=
EXTT12=
PLAYORDER=
